<?xml version="1.0" encoding="UTF-8"?>
<svg version="1.1" viewBox="0 0 22 16" xmlns="http://www.w3.org/2000/svg">
<title>remove_red_eye</title>
<desc>Created with Sketch.</desc>
<g fill="none" fill-rule="evenodd">
<g transform="translate(-747 -2904)">
<g transform="translate(100 2626)">
<g transform="translate(646 274)">
<polygon points="0 0 24 0 24 24 0 24"/>
<path d="m12 4.5c-5 0-9.27 3.11-11 7.5 1.73 4.39 6 7.5 11 7.5s9.27-3.11 11-7.5c-1.73-4.39-6-7.5-11-7.5zm0 12.5c-2.76 0-5-2.24-5-5s2.24-5 5-5 5 2.24 5 5-2.24 5-5 5zm0-8c-1.66 0-3 1.34-3 3s1.34 3 3 3 3-1.34 3-3-1.34-3-3-3z" fill="#fff"/>
</g>
</g>
</g>
</g>
</svg>
