<svg width="325" height="25" viewBox="0 0 325 25" fill="none" xmlns="http://www.w3.org/2000/svg">
<g filter="url(#filter0_d_110_569)">
<path d="M21.0256 0.964349L30.4916 22H22.3779L20.7852 18.454H10.3575L8.7648 22H0.681097L10.1471 0.964349H21.0256ZM12.8517 12.3837H18.2909L15.5563 6.85433L12.8517 12.3837ZM38.1818 14.9981H53.4778V22H31.18V0.904248H38.1818V14.9981ZM70.1767 0.904248C70.5774 0.904248 70.958 0.914265 71.3186 0.934298C71.6792 0.954332 72.1801 1.02445 72.8212 1.14466C73.4823 1.24483 74.0733 1.4051 74.5942 1.62547C75.1351 1.82581 75.7061 2.12632 76.3071 2.527C76.9081 2.92768 77.4089 3.40849 77.8096 3.96944C78.2303 4.51036 78.5709 5.22156 78.8314 6.10306C79.1118 6.96452 79.2521 7.93616 79.2521 9.018C79.2521 10.0798 79.1218 11.0514 78.8614 11.9329C78.621 12.8144 78.3005 13.5557 77.8998 14.1567C77.4991 14.7377 77.0183 15.2586 76.4573 15.7194C75.8964 16.1601 75.3454 16.5107 74.8045 16.7711C74.2636 17.0115 73.6926 17.2119 73.0916 17.3722C72.5106 17.5124 72.0098 17.6126 71.5891 17.6727C71.1684 17.7127 70.7777 17.7328 70.4171 17.7328H62.3634V22H55.3616V0.904248H61.6422H62.3634H70.1767ZM69.9663 11.5122C71.8095 11.5122 72.731 10.7509 72.731 9.22836C72.731 8.82768 72.6509 8.4871 72.4906 8.20662C72.3504 7.92615 72.1801 7.72581 71.9797 7.6056C71.7994 7.46537 71.559 7.35518 71.2585 7.27504C70.958 7.19491 70.7076 7.14482 70.5072 7.12479C70.3269 7.10476 70.1066 7.09474 69.8461 7.09474H62.3634V11.5122H69.9663ZM96.2116 0.964349L105.678 22H97.5639L95.9712 18.454H85.5435L83.9508 22H75.8671L85.3332 0.964349H96.2116ZM88.0377 12.3837H93.477L90.7423 6.85433L88.0377 12.3837ZM118.408 0.723943C121.053 0.723943 123.327 0.954333 125.23 1.41511C127.133 1.85586 128.636 2.50696 129.738 3.36842C130.839 4.20985 131.641 5.19151 132.142 6.31342C132.643 7.43532 132.893 8.73752 132.893 10.22H125.711C125.691 10.1199 125.651 9.98965 125.591 9.82937C125.551 9.6691 125.38 9.39864 125.08 9.018C124.779 8.61732 124.389 8.26673 123.908 7.96622C123.427 7.64567 122.696 7.3652 121.714 7.12479C120.752 6.86435 119.63 6.73413 118.348 6.73413C117.206 6.73413 116.205 6.82428 115.343 7.00459C114.502 7.18489 113.831 7.41528 113.33 7.69576C112.849 7.97623 112.458 8.33684 112.158 8.77759C111.877 9.1983 111.687 9.61902 111.587 10.0397C111.487 10.4404 111.437 10.8912 111.437 11.392C111.437 12.0932 111.547 12.7143 111.767 13.2552C111.988 13.7961 112.348 14.2969 112.849 14.7577C113.35 15.1985 114.061 15.5391 114.983 15.7795C115.904 16.0199 117.026 16.1401 118.348 16.1401C119.711 16.1401 120.893 16.0399 121.894 15.8396C122.896 15.6392 123.627 15.3988 124.088 15.1183C124.549 14.8379 124.909 14.5574 125.17 14.2769C125.45 13.9764 125.611 13.726 125.651 13.5256L125.711 13.2251H132.893C132.893 14.2469 132.763 15.1784 132.502 16.0199C132.242 16.8413 131.781 17.6426 131.12 18.4239C130.459 19.2053 129.597 19.8564 128.536 20.3772C127.494 20.8981 126.132 21.3188 124.449 21.6394C122.766 21.9399 120.812 22.0902 118.589 22.0902C115.864 22.0902 113.58 21.8898 111.737 21.4891C109.894 21.0684 108.411 20.4173 107.29 19.5358C106.188 18.6343 105.396 17.5525 104.916 16.2903C104.435 15.0282 104.194 13.4756 104.194 11.6324C104.194 9.64907 104.495 7.9562 105.096 6.55382C105.717 5.13141 106.638 3.99949 107.861 3.15807C109.083 2.29661 110.555 1.67556 112.278 1.29491C114.001 0.914265 116.044 0.723943 118.408 0.723943ZM151.442 0.964349L160.908 22H152.794L151.202 18.454H140.774L139.181 22H131.097L140.563 0.964349H151.442ZM143.268 12.3837H148.707L145.973 6.85433L143.268 12.3837ZM176.05 0.964349C176.371 0.964349 176.761 0.9944 177.222 1.0545C177.703 1.09457 178.334 1.20476 179.115 1.38506C179.917 1.54533 180.698 1.77572 181.459 2.07623C182.221 2.35671 183.012 2.7674 183.833 3.30832C184.655 3.84924 185.366 4.48031 185.967 5.20153C186.568 5.90272 187.059 6.79423 187.439 7.87606C187.84 8.9579 188.04 10.1599 188.04 11.4822C188.04 12.8044 187.87 14.0065 187.53 15.0883C187.209 16.1701 186.788 17.0716 186.267 17.7929C185.747 18.4941 185.115 19.1151 184.374 19.656C183.633 20.1969 182.902 20.6177 182.18 20.9182C181.479 21.1986 180.718 21.429 179.897 21.6093C179.075 21.7696 178.384 21.8798 177.823 21.9399C177.262 21.98 176.701 22 176.14 22H161.626V0.964349H168.628H176.05ZM175.659 16.2603C176.982 16.2603 178.104 15.7995 179.025 14.8779C179.967 13.9363 180.438 12.8144 180.438 11.5122C180.438 10.19 179.967 9.06808 179.025 8.14652C178.104 7.20493 176.982 6.73413 175.659 6.73413H168.628V16.2603H175.659ZM206.32 0.964349L215.786 22H207.672L206.08 18.454H195.652L194.059 22H185.976L195.442 0.964349H206.32ZM198.146 12.3837H203.585L200.851 6.85433L198.146 12.3837ZM241.586 16.08C241.586 17.0817 241.476 17.9331 241.256 18.6343C241.056 19.3155 240.685 19.9265 240.144 20.4674C239.623 20.9883 238.882 21.3789 237.92 21.6394C236.959 21.8798 235.767 22 234.344 22H222.865H216.915V0.904248H231.94C233.363 0.904248 234.565 1.01443 235.546 1.23481C236.548 1.45518 237.339 1.80578 237.92 2.28659C238.521 2.74737 238.952 3.29831 239.212 3.93939C239.473 4.56044 239.603 5.31172 239.603 6.19321C239.603 8.09644 239.122 9.46876 238.161 10.3102C238.581 10.4304 238.972 10.6207 239.333 10.8812C239.713 11.1216 240.084 11.4621 240.445 11.9029C240.805 12.3236 241.086 12.8946 241.286 13.6158C241.486 14.337 241.586 15.1584 241.586 16.08ZM223.947 6.76418V8.77759H231.85C232.13 8.77759 232.361 8.67742 232.541 8.47708C232.741 8.27674 232.842 8.03633 232.842 7.75586C232.842 7.47538 232.741 7.24499 232.541 7.06469C232.361 6.86435 232.13 6.76418 231.85 6.76418H223.947ZM234.224 16.1701C234.525 16.1701 234.775 16.0699 234.975 15.8696C235.176 15.6693 235.276 15.4289 235.276 15.1484C235.276 14.8479 235.176 14.5975 234.975 14.3971C234.775 14.1968 234.525 14.0966 234.224 14.0966H223.947V16.1701H234.224ZM268.055 8.65739C268.055 11.983 266.763 14.357 264.178 15.7795L268.506 22L260.422 21.9699L256.816 17.0115H250.475V22H243.473V0.904248H250.475H258.98C259.38 0.904248 259.761 0.914265 260.122 0.934298C260.482 0.954332 260.983 1.02445 261.624 1.14466C262.285 1.24483 262.876 1.39508 263.397 1.59542C263.938 1.77572 264.509 2.06622 265.11 2.4669C265.711 2.84754 266.212 3.30832 266.613 3.84924C267.033 4.37012 267.374 5.04126 267.634 5.86265C267.915 6.68404 268.055 7.61562 268.055 8.65739ZM258.319 10.8511C260.061 10.8511 260.933 10.19 260.933 8.86774C260.933 7.66571 260.021 7.06469 258.198 7.06469H250.475V10.8511H258.319ZM288.05 0.964349L297.516 22H289.403L287.81 18.454H277.382L275.79 22H267.706L277.172 0.964349H288.05ZM279.877 12.3837H285.316L282.581 6.85433L279.877 12.3837ZM322.946 0.904248V7.69576L309.303 16.1701H322.946V22H299.446H299.056V15.2686L312.939 6.76418H299.056V0.904248H322.946Z" fill="#E900FF"/>
</g>
<defs>
<filter id="filter0_d_110_569" x="0.681152" y="0.723938" width="324.22" height="23.3213" filterUnits="userSpaceOnUse" color-interpolation-filters="sRGB">
<feFlood flood-opacity="0" result="BackgroundImageFix"/>
<feColorMatrix in="SourceAlpha" type="matrix" values="0 0 0 0 0 0 0 0 0 0 0 0 0 0 0 0 0 0 127 0" result="hardAlpha"/>
<feOffset dx="1.95507" dy="1.95507"/>
<feComposite in2="hardAlpha" operator="out"/>
<feColorMatrix type="matrix" values="0 0 0 0 1 0 0 0 0 1 0 0 0 0 1 0 0 0 1 0"/>
<feBlend mode="normal" in2="BackgroundImageFix" result="effect1_dropShadow_110_569"/>
<feBlend mode="normal" in="SourceGraphic" in2="effect1_dropShadow_110_569" result="shape"/>
</filter>
</defs>
</svg>
