<svg width="24" height="24" viewBox="0 0 24 24" fill="none" xmlns="http://www.w3.org/2000/svg">
<path d="M12 1.76001C9.21897 1.76001 8.87025 1.7718 7.77805 1.82163C6.68813 1.87138 5.94375 2.04446 5.29237 2.29761C4.619 2.5593 4.04794 2.90944 3.47867 3.47871C2.9094 4.04798 2.55926 4.61904 2.29757 5.29241C2.04442 5.94375 1.87134 6.68812 1.82159 7.77805C1.77176 8.87025 1.76001 9.21897 1.76001 12C1.76001 14.781 1.77176 15.1297 1.82159 16.2219C1.87134 17.3118 2.04442 18.0562 2.29757 18.7075C2.55926 19.3809 2.9094 19.952 3.47867 20.5213C4.04794 21.0905 4.619 21.4407 5.29237 21.7024C5.94375 21.9555 6.68813 22.1286 7.77805 22.1783C8.87025 22.2281 9.21897 22.2399 12 22.2399C14.781 22.2399 15.1297 22.2281 16.2219 22.1783C17.3118 22.1286 18.0562 21.9555 18.7075 21.7024C19.3809 21.4407 19.952 21.0905 20.5213 20.5213C21.0905 19.952 21.4407 19.3809 21.7024 18.7075C21.9555 18.0562 22.1286 17.3118 22.1783 16.2219C22.2282 15.1297 22.2399 14.781 22.2399 12C22.2399 9.21897 22.2282 8.87025 22.1783 7.77805C22.1286 6.68812 21.9555 5.94375 21.7024 5.29241C21.4407 4.61904 21.0905 4.04798 20.5213 3.47871C19.952 2.90944 19.3809 2.5593 18.7075 2.29761C18.0562 2.04446 17.3118 1.87138 16.2219 1.82163C15.1297 1.7718 14.781 1.76001 12 1.76001ZM12 3.60509C14.7342 3.60509 15.058 3.61549 16.1378 3.66476C17.1362 3.71032 17.6784 3.87714 18.0392 4.01733C18.5172 4.20309 18.8583 4.42503 19.2166 4.78334C19.575 5.14165 19.7969 5.4828 19.9826 5.96074C20.1229 6.32156 20.2897 6.86376 20.3352 7.86215C20.3845 8.94191 20.3949 9.26579 20.3949 12C20.3949 14.7342 20.3845 15.058 20.3352 16.1378C20.2897 17.1362 20.1229 17.6784 19.9826 18.0392C19.7969 18.5172 19.575 18.8583 19.2166 19.2166C18.8583 19.575 18.5172 19.7969 18.0392 19.9826C17.6784 20.1228 17.1362 20.2897 16.1378 20.3352C15.0582 20.3845 14.7344 20.3949 12 20.3949C9.26559 20.3949 8.94179 20.3845 7.86215 20.3352C6.86376 20.2897 6.32157 20.1228 5.96074 19.9826C5.48276 19.7969 5.14165 19.575 4.7833 19.2166C4.42499 18.8583 4.20305 18.5172 4.01733 18.0392C3.8771 17.6784 3.71028 17.1362 3.66472 16.1378C3.61545 15.058 3.60505 14.7342 3.60505 12C3.60505 9.26579 3.61545 8.94191 3.66472 7.86215C3.71028 6.86376 3.8771 6.32156 4.01733 5.96074C4.20305 5.4828 4.42499 5.14165 4.7833 4.78334C5.14165 4.42503 5.48276 4.20309 5.96074 4.01733C6.32157 3.87714 6.86376 3.71032 7.86215 3.66476C8.94191 3.61549 9.26579 3.60509 12 3.60509Z" fill="white"/>
<path d="M12 15.4133C10.1148 15.4133 8.58661 13.8851 8.58661 12C8.58661 10.1148 10.1148 8.58664 12 8.58664C13.8851 8.58664 15.4133 10.1148 15.4133 12C15.4133 13.8851 13.8851 15.4133 12 15.4133ZM12 6.74161C9.0958 6.74161 6.74158 9.09584 6.74158 12C6.74158 14.9041 9.0958 17.2583 12 17.2583C14.9041 17.2583 17.2583 14.9041 17.2583 12C17.2583 9.09584 14.9041 6.74161 12 6.74161Z" fill="white"/>
<path d="M18.6949 6.53386C18.6949 7.21251 18.1447 7.76264 17.4661 7.76264C16.7875 7.76264 16.2373 7.21251 16.2373 6.53386C16.2373 5.85521 16.7875 5.30508 17.4661 5.30508C18.1447 5.30508 18.6949 5.85521 18.6949 6.53386Z" fill="white"/>
</svg>
