<svg width="24" height="24" viewBox="0 0 24 24" fill="none" xmlns="http://www.w3.org/2000/svg">
<path fill-rule="evenodd" clip-rule="evenodd" d="M12 13.9459C9.94096 13.9459 8.27026 12.2769 8.27026 10.2162C8.27026 8.1555 9.94096 6.48648 12 6.48648C14.059 6.48648 15.7297 8.1555 15.7297 10.2162C15.7297 12.2769 14.059 13.9459 12 13.9459ZM10.3784 10.2162C10.3784 11.1122 11.1048 11.8378 12 11.8378C12.8952 11.8378 13.6216 11.1122 13.6216 10.2162C13.6216 9.32025 12.8952 8.59459 12 8.59459C11.1048 8.59459 10.3784 9.32025 10.3784 10.2162Z" fill="white"/>
<path fill-rule="evenodd" clip-rule="evenodd" d="M0 10.2212L7.13513 3.08109H16.8649L24 10.2212L12 22.2162L0 10.2212ZM17.5135 7.62159C14.4818 4.57661 9.51816 4.57663 6.48649 7.62161L3.89189 10.2162L6.48649 12.8108C9.51816 15.8558 14.4818 15.8558 17.5135 12.8108L20.1081 10.2162L17.5135 7.62159Z" fill="white"/>
</svg>
