<svg width="24" height="24" viewBox="0 0 24 24" fill="none" xmlns="http://www.w3.org/2000/svg">
<path d="M7.54753 21.7506C16.6042 21.7506 21.5578 14.2473 21.5578 7.74037C21.5578 7.52728 21.5578 7.31512 21.5434 7.10391C22.507 6.40683 23.3389 5.54381 24 4.55512C23.1014 4.95333 22.148 5.21442 21.1718 5.32983C22.1995 4.71464 22.9692 3.7463 23.3366 2.6063C22.3701 3.17981 21.3126 3.58406 20.2099 3.80151C19.2789 2.81147 17.9786 2.24939 16.6196 2.24939C13.9158 2.24939 11.691 4.47426 11.691 7.17801C11.691 7.55311 11.7338 7.92703 11.8185 8.29238C7.86145 8.09405 4.16948 6.22233 1.67039 3.14775C0.370828 5.38491 1.04325 8.28412 3.19486 9.72084C2.41134 9.69764 1.64466 9.48623 0.96 9.10453V9.16692C0.960656 11.502 2.62158 13.5315 4.91039 13.9938C4.18552 14.1915 3.42478 14.2204 2.68706 14.0783C3.33052 16.0792 5.18602 17.4584 7.28738 17.4978C5.54409 18.8678 3.38939 19.612 1.17216 19.6098C0.780375 19.6091 0.388969 19.5854 0 19.5388C2.25159 20.9837 4.87219 21.7503 7.54753 21.7468" fill="white"/>
</svg>
